<svg width="20" height="20" viewBox="0 0 20 20" fill="none" xmlns="http://www.w3.org/2000/svg">
<path d="M12.5784 12.5784C11.8283 13.3286 10.8109 13.75 9.75 13.75C8.68913 13.75 7.67172 13.3286 6.92157 12.5784C6.17143 11.8283 5.75 10.8109 5.75 9.75C5.75 8.68913 6.17143 7.67172 6.92157 6.92157C7.67172 6.17143 8.68913 5.75 9.75 5.75C10.8109 5.75 11.8283 6.17143 12.5784 6.92157C13.3286 7.67172 13.75 8.68913 13.75 9.75C13.75 10.8109 13.3286 11.8283 12.5784 12.5784Z" stroke="white" stroke-width="1.5" stroke-linecap="round" stroke-linejoin="round"/>
<path d="M0.75 13.75V5.75C0.75 4.42392 1.27678 3.15215 2.21447 2.21447C3.15215 1.27678 4.42392 0.75 5.75 0.75H13.75C15.0761 0.75 16.3479 1.27678 17.2855 2.21447C18.2232 3.15215 18.75 4.42392 18.75 5.75V13.75C18.75 15.0761 18.2232 16.3479 17.2855 17.2855C16.3479 18.2232 15.0761 18.75 13.75 18.75H5.75C4.42392 18.75 3.15215 18.2232 2.21447 17.2855C1.27678 16.3479 0.75 15.0761 0.75 13.75Z" stroke="white" stroke-width="1.5"/>
<path d="M15.25 4.26002L15.26 4.24902" stroke="white" stroke-width="1.5" stroke-linecap="round" stroke-linejoin="round"/>
</svg>
