<svg width="21" height="21" viewBox="0 0 21 21" fill="none" xmlns="http://www.w3.org/2000/svg">
<g clip-path="url(#clip0_732_71)">
<path d="M21 4.77489V16.9453C21 17.7363 20.3595 18.3768 19.5685 18.3768H16.2269V10.2638L10.5 14.56L4.77313 10.2638V18.3776H1.4315C1.24344 18.3776 1.05722 18.3406 0.883487 18.2686C0.709752 18.1966 0.551906 18.0911 0.418967 17.9581C0.286029 17.825 0.180604 17.6671 0.108715 17.4933C0.0368273 17.3196 -0.000114684 17.1333 2.67445e-07 16.9453V4.77489C2.67445e-07 3.00477 2.02038 1.99414 3.43613 3.05639L4.77313 4.06002L10.5 8.35452L16.2269 4.05827L17.5639 3.05639C18.9788 1.99502 21 3.00477 21 4.77489Z" fill="white"/>
</g>
<defs>
<clipPath id="clip0_732_71">
<rect width="21" height="21" fill="white"/>
</clipPath>
</defs>
</svg>
