<svg width="24" height="24" viewBox="0 0 24 24" fill="none" xmlns="http://www.w3.org/2000/svg">
<path d="M18.427 14.768L17.2 13.542C16.8751 13.2172 16.4344 13.0348 15.975 13.0348C15.5156 13.0348 15.075 13.2172 14.75 13.542L14.137 14.155C13.9763 14.3161 13.7854 14.444 13.5752 14.5312C13.365 14.6185 13.1396 14.6634 12.912 14.6634C12.6844 14.6634 12.4591 14.6185 12.2489 14.5312C12.0387 14.444 11.8477 14.3161 11.687 14.155L9.84902 12.315C9.52415 11.9897 9.34168 11.5487 9.34168 11.089C9.34168 10.6292 9.52415 10.1883 9.84902 9.86296L10.461 9.24996C10.7859 8.92465 10.9684 8.48371 10.9684 8.02396C10.9684 7.56422 10.7859 7.12327 10.461 6.79796L9.23702 5.57196C9.08683 5.39322 8.89935 5.2495 8.68773 5.15091C8.47611 5.05231 8.24548 5.00122 8.01202 5.00122C7.77855 5.00122 7.54792 5.05231 7.3363 5.15091C7.12468 5.2495 6.9372 5.39322 6.78702 5.57196C3.56402 8.77196 5.08502 12.468 8.30602 15.689C11.527 18.91 15.22 20.434 18.426 17.224C18.6058 17.0738 18.7504 16.886 18.8497 16.6738C18.9489 16.4616 19.0003 16.2302 19.0003 15.996C19.0003 15.7617 18.9489 15.5303 18.8497 15.3181C18.7504 15.1059 18.6068 14.9181 18.427 14.768Z" stroke="white" stroke-width="2" stroke-linecap="round" stroke-linejoin="round"/>
</svg>
